<svg xmlns="http://www.w3.org/2000/svg" viewBox="930 20 1400 1400"><style>path{fill:#0a0a0a}@media(prefers-color-scheme:dark){path{fill:#fff}}</style><path fill-rule="evenodd" d="M 1378.342 1.397 C 1377.706 2.123, 1374.781 3.025, 1371.842 3.401 C 1368.904 3.776, 1364.700 4.698, 1362.500 5.448 C 1360.300 6.199, 1355.460 7.753, 1351.745 8.901 C 1348.029 10.050, 1344.204 11.387, 1343.245 11.872 C 1342.285 12.357, 1337.675 14.639, 1333 16.943 C 1322.578 22.080, 1322.479 22.137, 1312.028 28.965 C 1302.797 34.995, 1281.420 55.264, 1275.605 63.500 C 1267.228 75.362, 1263.140 82.052, 1259.103 90.500 C 1256.737 95.450, 1254.171 100.774, 1253.401 102.331 C 1252.630 103.888, 1252 105.925, 1252 106.859 C 1252 107.792, 1251.387 109.443, 1250.638 110.527 C 1249.889 111.612, 1248.963 114.627, 1248.580 117.227 C 1248.197 119.826, 1247.520 122.179, 1247.074 122.454 C 1246.628 122.730, 1245.952 125.707, 1245.571 129.071 C 1245.191 132.434, 1244.344 136.382, 1243.690 137.843 C 1242.778 139.879, 1242.365 253.797, 1241.924 625.500 C 1241.404 1062.961, 1241.192 1111.186, 1239.764 1117.500 C 1238.176 1124.525, 1237.324 1127.234, 1233.788 1136.500 C 1227.609 1152.696, 1215.367 1170.269, 1203.205 1180.400 C 1195.480 1186.835, 1185.421 1194, 1184.112 1194 C 1183.635 1194, 1182.685 1194.675, 1182 1195.500 C 1181.315 1196.325, 1180 1197, 1179.078 1197 C 1178.155 1197, 1176.874 1197.526, 1176.232 1198.168 C 1174.314 1200.086, 1158.088 1205.722, 1150.578 1207.078 C 1147.785 1207.582, 1143.475 1208.426, 1141 1208.954 C 1134.984 1210.236, 1119.928 1210.235, 1112.500 1208.952 C 1109.200 1208.382, 1103.800 1207.459, 1100.500 1206.900 C 1097.200 1206.341, 1094.072 1205.460, 1093.550 1204.942 C 1093.027 1204.424, 1091.765 1204, 1090.745 1204 C 1086.943 1204, 1067.770 1194.554, 1059 1188.359 C 1050.790 1182.561, 1036.587 1168.288, 1031.440 1160.665 C 1025.506 1151.877, 1024.084 1149.644, 1023.373 1148 C 1023.016 1147.175, 1021.434 1143.730, 1019.856 1140.344 C 1018.278 1136.958, 1016.691 1132.703, 1016.328 1130.888 C 1015.965 1129.073, 1015.070 1126.443, 1014.340 1125.044 C 1013.610 1123.645, 1012.994 1121.375, 1012.971 1120 C 1012.948 1118.625, 1012.277 1114.800, 1011.480 1111.500 C 1010.227 1106.312, 1010.021 1048.052, 1009.956 681 C 1009.915 447.525, 1009.513 254.475, 1009.063 252 C 1008.613 249.525, 1007.697 244.125, 1007.029 240 C 1006.360 235.875, 1005.405 232.073, 1004.906 231.550 C 1004.408 231.028, 1004 229.792, 1004 228.804 C 1004 222.367, 990.619 192.744, 983.488 183.396 C 982.120 181.601, 981 179.854, 981 179.513 C 981 177.884, 969.133 164.411, 959.379 154.967 C 948.100 144.046, 932.184 132.615, 921.700 127.906 C 918.510 126.473, 915.383 124.783, 914.750 124.150 C 914.118 123.518, 912.971 123, 912.201 123 C 911.432 123, 909.384 122.388, 907.651 121.641 C 899.917 118.304, 898.181 117.671, 893 116.299 C 889.975 115.498, 884.350 114.233, 880.500 113.488 C 876.650 112.744, 871.475 111.665, 869 111.092 C 861.019 109.242, 835.574 109.772, 822.380 112.062 C 811.051 114.029, 808.362 114.698, 794.500 119.001 C 789.277 120.622, 779.759 124.803, 773.538 128.208 C 772.459 128.798, 769.759 130.253, 767.538 131.441 C 763.575 133.559, 758.476 136.715, 756.500 138.272 C 755.950 138.705, 753.025 140.863, 750 143.066 C 740.529 149.964, 715 176.426, 715 179.344 C 715 179.652, 713.036 182.738, 710.636 186.202 C 704.043 195.717, 694.923 216.016, 692.082 227.500 C 691.538 229.700, 690.645 233.300, 690.099 235.500 C 685.749 253.003, 685.974 233.621, 685.977 591 C 685.979 921.458, 685.944 927.698, 684.008 938.500 C 682.215 948.512, 680.444 955.074, 678.071 960.500 C 666.437 987.108, 652.818 1003.656, 631.500 1017.089 C 622.219 1022.937, 609.494 1029, 606.500 1029 C 605.712 1029, 603.590 1029.639, 601.784 1030.420 C 599.978 1031.200, 594.224 1032.588, 588.999 1033.504 C 570.250 1036.789, 542.700 1033.900, 527.500 1027.054 C 516.188 1021.959, 508.751 1018.078, 505 1015.312 C 502.525 1013.487, 499.150 1011.002, 497.500 1009.790 C 492.426 1006.064, 476 989.022, 476 987.484 C 476 987.101, 474.731 985.148, 473.180 983.144 C 469.839 978.828, 460 958.979, 460 956.556 C 460 955.628, 459.476 953.890, 458.836 952.694 C 454.605 944.789, 454.700 950.401, 454.085 672 C 453.449 384.414, 453.865 405.688, 448.506 386.500 C 447.738 383.750, 446.890 380.600, 446.621 379.500 C 444.920 372.541, 438.716 358.541, 431.573 345.548 C 420.531 325.459, 396.520 301.377, 373.500 287.301 C 371.454 286.050, 370.626 285.642, 368 284.592 C 367.175 284.262, 364.250 282.673, 361.500 281.062 C 358.750 279.451, 355.749 278.103, 354.831 278.066 C 353.913 278.030, 351.888 277.361, 350.331 276.580 C 343.792 273.299, 334.160 270.443, 324.500 268.920 C 321.200 268.400, 317.150 267.558, 315.500 267.050 C 307.087 264.458, 276.713 264.995, 261.500 268.005 C 246.549 270.964, 226.766 277.786, 218 283.008 C 217.175 283.499, 214.475 284.902, 212 286.124 C 209.525 287.346, 206.540 289.056, 205.366 289.923 C 204.192 290.790, 202.229 292.175, 201.003 293 C 188.569 301.368, 171.371 317.608, 162.879 329 C 160.214 332.575, 157.676 335.950, 157.237 336.500 C 155.822 338.277, 149.868 348.225, 148.923 350.395 C 148.418 351.553, 147.620 353.175, 147.150 354 C 144.797 358.130, 139 371.492, 139 372.787 C 139 373.328, 138.328 375.060, 137.506 376.636 C 136.685 378.211, 135.994 380.625, 135.971 382 C 135.948 383.375, 135.286 385.625, 134.500 387 C 133.714 388.375, 133.055 391.078, 133.035 393.007 C 133.016 394.935, 132.440 398.085, 131.755 400.007 C 130.793 402.707, 130.395 436.202, 130.005 547.500 L 129.500 691.500 64.750 691.757 L -0 692.015 -0 715.007 L 0 738 69.966 738 C 145.790 738, 140.483 738.347, 151.500 732.663 C 156.441 730.114, 157.355 729.424, 161.882 724.822 C 168.065 718.536, 169.680 716.087, 173.174 707.688 C 174.246 705.109, 174.596 676.880, 175 560 C 175.470 424.047, 175.610 414.968, 177.363 406.500 C 178.388 401.550, 179.851 396.082, 180.613 394.349 C 181.376 392.616, 182 390.515, 182 389.680 C 182 388.845, 182.621 386.888, 183.381 385.331 C 184.141 383.774, 186.497 378.900, 188.618 374.500 C 196.299 358.561, 210.313 342.743, 227.010 331.168 C 233.650 326.565, 250.144 318.509, 255 317.498 C 256.925 317.097, 258.950 316.440, 259.500 316.038 C 260.050 315.635, 264.775 314.450, 270 313.403 C 287.705 309.856, 309.509 311.283, 327.500 317.166 C 335.436 319.761, 351.574 327.661, 356.144 331.188 C 358.148 332.735, 360.014 334, 360.291 334 C 362.374 334, 385 356.566, 385 358.643 C 385 359.201, 389.103 365.018, 390.750 366.794 C 391.437 367.536, 392 368.731, 392 369.449 C 392 370.167, 392.675 371.315, 393.500 372 C 394.325 372.685, 395 374, 395 374.922 C 395 375.845, 395.526 377.126, 396.168 377.768 C 396.810 378.410, 397.945 380.638, 398.689 382.718 C 403.657 396.605, 404.177 398.550, 407.045 414 C 407.505 416.475, 407.927 535.275, 407.984 678 C 408.049 841.150, 408.447 939.171, 409.055 942 C 409.588 944.475, 410.481 949.415, 411.040 952.978 C 411.599 956.541, 412.494 959.894, 413.028 960.428 C 413.563 960.963, 414 962.276, 414 963.347 C 414 965.851, 417.469 975.820, 421.012 983.500 C 422.535 986.800, 424.057 990.175, 424.394 991 C 426.839 996.984, 436.756 1012.490, 442.940 1020 C 449.744 1028.262, 467.050 1044.906, 474.132 1050 C 482.145 1055.763, 492.176 1061.919, 493.628 1061.965 C 494.248 1061.984, 495.315 1062.675, 496 1063.500 C 496.685 1064.325, 498.035 1065, 499 1065 C 499.965 1065, 501.315 1065.675, 502 1066.500 C 502.685 1067.325, 503.977 1068.003, 504.872 1068.006 C 505.768 1068.010, 507.789 1068.685, 509.364 1069.506 C 510.940 1070.328, 512.740 1071.003, 513.364 1071.006 C 513.989 1071.010, 515.757 1071.668, 517.292 1072.469 C 518.828 1073.270, 521.753 1074.238, 523.792 1074.620 C 525.832 1075.001, 528.948 1075.918, 530.718 1076.657 C 532.488 1077.396, 535.278 1078, 536.919 1078 C 538.560 1078, 542.494 1078.675, 545.661 1079.500 C 552.337 1081.239, 584.550 1081.548, 592 1079.944 C 594.475 1079.412, 599.065 1078.569, 602.199 1078.071 C 605.334 1077.573, 609.384 1076.687, 611.199 1076.102 C 623.456 1072.150, 630.483 1069.737, 631.882 1069.001 C 632.772 1068.532, 636.875 1066.514, 641 1064.515 C 645.125 1062.516, 650.300 1059.805, 652.500 1058.491 C 654.700 1057.178, 657.513 1055.641, 658.750 1055.076 C 659.987 1054.512, 661 1053.588, 661 1053.025 C 661 1052.461, 661.484 1052, 662.076 1052 C 665.480 1052, 690.970 1027.894, 698.716 1017.349 C 708.115 1004.554, 716 991.285, 716 988.263 C 716 987.703, 716.675 986.685, 717.500 986 C 718.325 985.315, 719 983.775, 719 982.578 C 719 981.380, 719.418 979.973, 719.930 979.450 C 721.953 977.384, 726.133 963.635, 728.510 951.233 C 729.276 947.236, 730.262 943.411, 730.701 942.733 C 731.141 942.055, 731.759 787.375, 732.076 599 C 732.592 292.875, 732.820 255.703, 734.225 249 C 738.678 227.756, 751.030 204.667, 765.552 190.442 C 772.684 183.456, 787.788 172, 789.867 172 C 790.356 172, 791.315 171.325, 792 170.500 C 792.685 169.675, 793.942 169, 794.794 169 C 795.646 169, 797.053 168.381, 797.921 167.625 C 800.012 165.804, 816.403 160.179, 823.152 158.966 C 826.094 158.438, 830.525 157.574, 833 157.046 C 843.755 154.754, 865.473 156.454, 880 160.725 C 890.253 163.740, 904.765 170.545, 912.955 176.179 C 925.145 184.564, 937.422 196.889, 944.250 207.595 C 946.038 210.398, 948.043 213.548, 948.707 214.595 C 952.921 221.247, 959.328 238.409, 962.112 250.500 C 963.270 255.533, 963.586 325.786, 964.068 686.500 L 964.643 1116.500 966.768 1125 C 969.950 1137.733, 971.702 1144.115, 973.080 1148 C 975.728 1155.462, 988.361 1179.865, 993.271 1187 C 1001.388 1198.797, 1023.555 1220.367, 1035.997 1228.575 C 1041.770 1232.384, 1046.945 1235.662, 1047.497 1235.860 C 1048.049 1236.058, 1051.875 1237.794, 1056 1239.718 C 1076.026 1249.058, 1084.860 1251.623, 1109 1255.103 C 1119.980 1256.686, 1145.481 1255.615, 1156.500 1253.108 C 1169.910 1250.056, 1174.155 1248.915, 1177.784 1247.385 C 1179.590 1246.623, 1181.692 1246, 1182.454 1246 C 1183.640 1246, 1194.149 1241.204, 1200.462 1237.782 C 1201.541 1237.197, 1204.241 1235.747, 1206.462 1234.559 C 1210.425 1232.441, 1215.524 1229.285, 1217.500 1227.728 C 1218.050 1227.295, 1220.910 1225.179, 1223.856 1223.025 C 1236.396 1213.861, 1253.309 1195.704, 1262.328 1181.723 C 1270.646 1168.828, 1281.939 1143.583, 1282.035 1137.664 C 1282.055 1136.474, 1282.714 1134.375, 1283.500 1133 C 1284.286 1131.625, 1284.945 1128.922, 1284.965 1126.993 C 1284.984 1125.065, 1285.563 1121.915, 1286.250 1119.993 C 1287.241 1117.225, 1287.613 1015.860, 1288.043 631.500 C 1288.477 243.313, 1288.840 145.502, 1289.860 141.500 C 1293.969 125.375, 1295.478 121.172, 1301.490 109.112 C 1307.086 97.886, 1312.582 90.395, 1322.489 80.489 C 1333.109 69.869, 1340.397 64.559, 1352 58.985 C 1356.675 56.739, 1361.190 54.531, 1362.033 54.078 C 1362.876 53.625, 1365.126 52.920, 1367.033 52.512 C 1368.940 52.103, 1370.965 51.396, 1371.534 50.941 C 1372.103 50.486, 1375.253 49.639, 1378.534 49.061 C 1381.815 48.482, 1386.525 47.576, 1389 47.048 C 1400.477 44.598, 1425.862 47.046, 1440.462 52.010 C 1457.494 57.802, 1473.275 67.413, 1485.597 79.500 C 1490.916 84.718, 1501 97.192, 1501 98.555 C 1501 98.988, 1501.630 100.053, 1502.399 100.921 C 1507.838 107.057, 1514.933 125.173, 1518.095 141 C 1519.945 150.260, 1519.995 164.710, 1520.060 713.500 C 1520.096 1023.150, 1520.509 1280.100, 1520.976 1284.500 C 1523.120 1304.656, 1530.395 1329.219, 1538.008 1342 C 1538.499 1342.825, 1539.902 1345.525, 1541.124 1348 C 1542.346 1350.475, 1544.056 1353.460, 1544.923 1354.634 C 1545.790 1355.808, 1547.175 1357.771, 1548 1358.997 C 1559.862 1376.622, 1579.750 1395.612, 1599.060 1407.750 C 1601.904 1409.538, 1604.799 1411, 1605.493 1411 C 1606.187 1411, 1607.315 1411.675, 1608 1412.500 C 1608.685 1413.325, 1609.752 1413.999, 1610.372 1413.997 C 1611.388 1413.995, 1615.706 1415.908, 1623.154 1419.662 C 1624.614 1420.398, 1626.639 1421.014, 1627.654 1421.032 C 1628.669 1421.049, 1630.374 1421.724, 1631.441 1422.532 C 1632.509 1423.339, 1634.669 1424, 1636.241 1424 C 1637.813 1424, 1640.314 1424.613, 1641.800 1425.362 C 1643.285 1426.111, 1647.152 1426.985, 1650.392 1427.304 C 1653.633 1427.624, 1656.761 1428.361, 1657.342 1428.942 C 1658.743 1430.343, 1734.808 1430.404, 1738.481 1429.007 C 1739.918 1428.461, 1747.035 1427.594, 1754.296 1427.081 C 1773.110 1425.752, 1800.673 1421.845, 1822 1417.484 C 1825.575 1416.753, 1832.229 1415.453, 1836.786 1414.594 C 1841.343 1413.735, 1845.926 1412.575, 1846.970 1412.016 C 1848.014 1411.457, 1850.219 1411, 1851.869 1411 C 1853.520 1411, 1856.137 1410.501, 1857.685 1409.890 C 1859.233 1409.280, 1862.975 1408.198, 1866 1407.485 C 1871.718 1406.139, 1878.943 1404.168, 1887.500 1401.621 C 1892.350 1400.177, 1895.482 1399.177, 1902.250 1396.912 C 1904.037 1396.314, 1906.850 1395.439, 1908.500 1394.969 C 1913.457 1393.554, 1921.368 1390.878, 1923.500 1389.893 C 1924.600 1389.385, 1926.850 1388.560, 1928.500 1388.060 C 1930.150 1387.559, 1933.975 1386.182, 1937 1385 C 1940.025 1383.818, 1943.625 1382.472, 1945 1382.009 C 1950.448 1380.176, 1972.557 1370.779, 1973.450 1369.917 C 1973.972 1369.413, 1975.053 1369, 1975.851 1369 C 1977.410 1369, 2022.007 1347.102, 2028.272 1343.261 C 2030.346 1341.988, 2034.621 1339.587, 2037.772 1337.923 C 2040.922 1336.260, 2044.850 1334.028, 2046.500 1332.964 C 2048.150 1331.900, 2050.400 1330.566, 2051.500 1330 C 2052.600 1329.434, 2054.698 1328.189, 2056.162 1327.235 C 2057.626 1326.281, 2061.001 1324.194, 2063.662 1322.598 C 2066.323 1321.002, 2074.268 1315.827, 2081.319 1311.098 C 2088.369 1306.369, 2094.899 1302.050, 2095.830 1301.500 C 2098.206 1300.096, 2136.854 1270.658, 2140.500 1267.475 C 2142.150 1266.035, 2145.717 1262.976, 2148.426 1260.678 C 2163.121 1248.215, 2171.416 1240.467, 2191.438 1220.500 C 2211.275 1200.719, 2218.490 1193.053, 2227.631 1182.045 C 2229.209 1180.145, 2231.519 1177.445, 2232.764 1176.045 C 2234.890 1173.654, 2242.168 1164.702, 2243.775 1162.500 C 2244.177 1161.950, 2246.754 1158.718, 2249.503 1155.318 C 2255.590 1147.788, 2263.136 1137.763, 2268.500 1130.078 C 2277.682 1116.924, 2283.549 1108.399, 2284.494 1106.836 C 2285.047 1105.920, 2287.075 1102.619, 2289 1099.500 C 2290.925 1096.381, 2292.959 1093.080, 2293.520 1092.164 C 2294.082 1091.249, 2295.769 1088.596, 2297.270 1086.270 C 2298.772 1083.943, 2300 1081.613, 2300 1081.091 C 2300 1080.570, 2300.584 1079.548, 2301.299 1078.821 C 2302.896 1077.196, 2308.648 1067.241, 2311.884 1060.500 C 2313.205 1057.750, 2314.601 1055.275, 2314.988 1055 C 2315.375 1054.725, 2316.323 1053.273, 2317.096 1051.773 C 2321.448 1043.320, 2332.054 1021.788, 2333.977 1017.500 C 2335.210 1014.750, 2337.453 1009.800, 2338.960 1006.500 C 2340.467 1003.200, 2342.730 998.025, 2343.987 995 C 2347.983 985.390, 2348.965 983.077, 2350.465 979.750 C 2351.271 977.962, 2352.221 975.258, 2352.576 973.741 C 2352.931 972.223, 2353.622 970.734, 2354.111 970.432 C 2354.600 970.129, 2355 968.884, 2355 967.663 C 2355 966.443, 2355.660 964.503, 2356.466 963.352 C 2357.272 962.201, 2358.366 959.514, 2358.896 957.380 C 2359.894 953.367, 2368.614 927.034, 2370.115 923.500 C 2370.582 922.400, 2371.401 919.700, 2371.936 917.500 C 2374.207 908.149, 2375.310 904.311, 2376.615 901.216 C 2377.377 899.410, 2378 896.852, 2378 895.531 C 2378 894.211, 2378.505 891.863, 2379.122 890.315 C 2380.201 887.608, 2381.555 881.911, 2384.425 868 C 2386.404 858.404, 2387.750 852.109, 2389.021 846.500 C 2389.644 843.750, 2390.363 839.925, 2390.617 838 C 2390.872 836.075, 2391.724 830.225, 2392.510 825 C 2397.476 792.010, 2398.720 778.279, 2400.166 740.500 C 2401.869 696.037, 2398.211 632.188, 2392.453 605.857 C 2391.654 602.203, 2391 597.777, 2391 596.021 C 2391 594.265, 2390.352 590.054, 2389.561 586.664 C 2388.769 583.274, 2387.447 577.125, 2386.622 573 C 2385.797 568.875, 2384.617 563.250, 2383.999 560.500 C 2383.381 557.750, 2382.274 552.800, 2381.538 549.500 C 2380.803 546.200, 2379.222 539.900, 2378.025 535.500 C 2376.828 531.100, 2375.477 525.925, 2375.022 524 C 2374.568 522.075, 2373.742 519.150, 2373.188 517.500 C 2372.633 515.850, 2371.178 511.125, 2369.953 507 C 2368.729 502.875, 2367.177 497.925, 2366.505 496 C 2365.833 494.075, 2364.730 490.925, 2364.054 489 C 2363.378 487.075, 2362.445 484.150, 2361.981 482.500 C 2361.047 479.181, 2358.410 471.607, 2357.107 468.500 C 2356.645 467.400, 2355.280 463.800, 2354.074 460.500 C 2352.867 457.200, 2351.288 453.150, 2350.566 451.500 C 2349.843 449.850, 2348.441 446.475, 2347.449 444 C 2344.746 437.253, 2342.070 430.915, 2340.270 427 C 2339.385 425.075, 2337.996 421.925, 2337.184 420 C 2336.372 418.075, 2335.352 415.825, 2334.918 415 C 2333.557 412.415, 2327.303 399.745, 2324.551 394 C 2323.102 390.975, 2321.486 387.712, 2320.959 386.750 C 2320.431 385.788, 2319.569 384.212, 2319.041 383.250 C 2318.514 382.288, 2316.692 378.800, 2314.992 375.500 C 2310.033 365.874, 2304.345 356.088, 2291.740 335.500 C 2291.067 334.400, 2288.037 329.769, 2285.008 325.208 C 2281.979 320.647, 2279.045 316.147, 2278.488 315.208 C 2277.140 312.934, 2273.712 307.750, 2272.730 306.500 C 2272.297 305.950, 2268.838 301.225, 2265.042 296 C 2261.246 290.775, 2257.434 285.787, 2256.570 284.916 C 2255.707 284.045, 2255 282.996, 2255 282.584 C 2255 281.974, 2248.844 273.833, 2246.996 272 C 2246.719 271.725, 2243.810 268.125, 2240.532 264 C 2237.254 259.875, 2232.905 254.700, 2230.868 252.500 C 2228.830 250.300, 2226.143 247.150, 2224.897 245.500 C 2212.973 229.721, 2157.980 176.411, 2138.270 161.523 C 2135.097 159.126, 2131.595 156.340, 2130.490 155.332 C 2126.433 151.635, 2119.142 146, 2118.416 146 C 2118.004 146, 2116.955 145.312, 2116.084 144.470 C 2113.869 142.331, 2097.192 130, 2096.514 130 C 2096.208 130, 2093.154 127.863, 2089.729 125.250 C 2086.303 122.638, 2082.600 119.952, 2081.500 119.283 C 2074.617 115.094, 2068.472 111.296, 2066.481 110 C 2059.784 105.640, 2046.597 97.696, 2037.494 92.536 C 2024.302 85.060, 1996.810 71.028, 1986 66.253 C 1984.075 65.403, 1981.825 64.320, 1981 63.847 C 1979.421 62.942, 1979.152 62.821, 1972 59.811 C 1969.525 58.770, 1966.306 57.261, 1964.846 56.459 C 1963.386 55.656, 1961.510 55, 1960.677 55 C 1959.844 55, 1957.888 54.337, 1956.331 53.526 C 1952.786 51.681, 1944.578 48.389, 1932.500 43.967 C 1929.200 42.759, 1925.022 41.147, 1923.216 40.385 C 1921.410 39.623, 1919.160 38.997, 1918.216 38.994 C 1917.272 38.990, 1915.293 38.358, 1913.817 37.588 C 1912.342 36.818, 1909.657 35.864, 1907.850 35.467 C 1906.044 35.070, 1903.876 34.379, 1903.033 33.931 C 1900.676 32.679, 1887.886 29, 1885.891 29 C 1884.916 29, 1883.871 28.601, 1883.570 28.113 C 1883.269 27.626, 1881.330 26.931, 1879.261 26.570 C 1877.192 26.209, 1873.475 25.288, 1871 24.523 C 1860.715 21.343, 1847.140 18.204, 1825.500 14.001 C 1822.200 13.360, 1817.210 12.198, 1814.412 11.418 C 1811.614 10.638, 1807.910 10, 1806.182 10 C 1804.454 10, 1799.544 9.359, 1795.270 8.576 C 1783.749 6.466, 1771.347 4.956, 1754.052 3.558 C 1744.272 2.768, 1738.462 1.886, 1738.218 1.155 C 1737.940 0.321, 1730.501 0, 1711.415 0 L 1684.996 0 1685.248 228.250 L 1685.500 456.500 1698 457.167 C 1704.875 457.533, 1712.924 458.321, 1715.886 458.917 C 1718.849 459.512, 1723.095 460, 1725.321 460 C 1727.547 460, 1731.873 460.640, 1734.934 461.422 C 1737.995 462.205, 1743.650 463.589, 1747.500 464.498 C 1757.820 466.936, 1768.137 470.039, 1771.154 471.615 C 1772.614 472.377, 1774.639 473.014, 1775.654 473.032 C 1776.669 473.049, 1778.374 473.724, 1779.441 474.532 C 1780.509 475.339, 1781.931 476, 1782.602 476 C 1783.807 476, 1798.097 482.235, 1801 484.028 C 1801.825 484.537, 1804.525 485.990, 1807 487.256 C 1809.475 488.522, 1813.404 490.782, 1815.730 492.279 C 1818.057 493.776, 1820.354 495, 1820.836 495 C 1821.318 495, 1823.775 496.575, 1826.296 498.500 C 1828.817 500.425, 1831.180 502, 1831.547 502 C 1831.913 502, 1837.903 506.467, 1844.857 511.927 C 1855.626 520.383, 1873.928 537.912, 1883.065 548.521 C 1891.411 558.212, 1904.332 576.321, 1905.479 579.934 C 1905.840 581.070, 1906.510 582, 1906.970 582 C 1907.429 582, 1908.313 583.237, 1908.934 584.750 C 1909.555 586.263, 1911.594 590.200, 1913.464 593.500 C 1917.978 601.464, 1922 609.642, 1922 610.857 C 1922 611.397, 1922.661 613.112, 1923.468 614.669 C 1925.433 618.459, 1930.061 630.645, 1931.188 635 C 1931.687 636.925, 1932.479 639.400, 1932.949 640.500 C 1935.212 645.796, 1940.078 668.836, 1942.452 685.500 C 1944.511 699.949, 1944.537 730.435, 1942.500 742 C 1941.677 746.675, 1941.002 752.586, 1941.001 755.135 C 1941.001 757.685, 1940.361 761.960, 1939.581 764.635 C 1938.800 767.311, 1937.654 771.750, 1937.033 774.500 C 1934.914 783.887, 1933.192 790.497, 1931.954 794 C 1928.664 803.304, 1927.735 805.711, 1926.420 808.331 C 1925.639 809.888, 1925 811.844, 1925 812.677 C 1925 813.510, 1924.346 815.386, 1923.546 816.846 C 1922.746 818.306, 1920.334 823.100, 1918.187 827.500 C 1916.039 831.900, 1912.924 837.975, 1911.264 841 C 1909.604 844.025, 1907.402 848.075, 1906.373 850 C 1905.343 851.925, 1904.133 853.660, 1903.685 853.855 C 1903.237 854.050, 1902.431 855.175, 1901.892 856.355 C 1900.521 859.362, 1898.722 862.319, 1897.220 864.037 C 1896.516 864.842, 1894.163 867.931, 1891.992 870.902 C 1881.105 885.795, 1857.873 909.143, 1841.500 921.646 C 1836.206 925.689, 1827.875 931.442, 1826 932.351 C 1824.249 933.200, 1822.128 934.491, 1816.152 938.345 C 1807.441 943.962, 1777.376 957.947, 1773.827 958.032 C 1773.097 958.049, 1771.626 958.724, 1770.559 959.532 C 1769.491 960.339, 1767.594 961, 1766.343 961 C 1765.092 961, 1762.590 961.623, 1760.784 962.384 C 1750.225 966.836, 1724.860 971.417, 1700 973.364 L 1685.500 974.500 1685.248 1179.282 C 1685.038 1349.230, 1684.768 1384.152, 1683.657 1384.578 C 1680.659 1385.728, 1654.677 1381.822, 1649.349 1379.420 C 1647.616 1378.639, 1645.435 1378, 1644.503 1378 C 1643.571 1378, 1641.614 1377.392, 1640.154 1376.648 C 1638.694 1375.905, 1633.900 1373.548, 1629.500 1371.412 C 1610.300 1362.088, 1589.579 1341.828, 1580.499 1323.500 C 1579.409 1321.300, 1578.014 1318.825, 1577.400 1318 C 1576.785 1317.175, 1576.019 1315.600, 1575.697 1314.500 C 1575.375 1313.400, 1574.138 1309.800, 1572.948 1306.500 C 1571.758 1303.200, 1569.852 1296.675, 1568.712 1292 L 1566.640 1283.500 1566.070 710.500 C 1565.617 255.264, 1565.243 136.921, 1564.250 134.685 C 1563.563 133.137, 1563 130.826, 1563 129.550 C 1563 127.228, 1561.662 122.192, 1557.805 110 C 1555.556 102.891, 1547.389 85.410, 1542.622 77.500 C 1530.477 57.348, 1507.719 34.942, 1486.780 22.520 C 1482.864 20.197, 1468.182 13.093, 1464 11.498 C 1461.525 10.554, 1458.375 9.326, 1457 8.768 C 1453.484 7.344, 1444.723 5.110, 1436.538 3.552 C 1432.709 2.823, 1429.409 1.726, 1429.204 1.113 C 1428.625 -0.626, 1379.877 -0.354, 1378.342 1.397 M 1670.500 634.650 C 1666.453 635.497, 1657.470 638.297, 1656.500 639.015 C 1655.950 639.422, 1654.375 640.101, 1653 640.524 C 1651.625 640.946, 1648.700 642.464, 1646.500 643.896 C 1644.300 645.328, 1641.950 646.727, 1641.277 647.004 C 1639.040 647.925, 1624 663.293, 1624 664.658 C 1624 665.396, 1623.554 666, 1623.010 666 C 1621.962 666, 1614.011 682.062, 1613.985 684.230 C 1613.977 684.928, 1613.321 687.300, 1612.529 689.500 C 1610.813 694.264, 1610.531 713.518, 1612.090 719.500 C 1612.664 721.700, 1613.499 725.075, 1613.947 727 C 1615.195 732.371, 1621.604 744.107, 1626.832 750.596 C 1631.758 756.712, 1641.985 765.518, 1647.349 768.265 C 1653.178 771.250, 1659.879 774, 1661.323 774 C 1662.111 774, 1664.371 774.675, 1666.346 775.500 C 1671.189 777.524, 1692.856 777.504, 1698.500 775.471 C 1700.700 774.679, 1703.289 774.023, 1704.254 774.015 C 1705.880 774.001, 1719.876 767.231, 1721 765.915 C 1721.275 765.593, 1722.239 764.918, 1723.142 764.415 C 1726.815 762.369, 1734.467 755.145, 1738.940 749.500 C 1743.586 743.635, 1750.985 729.814, 1751.015 726.943 C 1751.023 726.150, 1751.679 723.700, 1752.471 721.500 C 1755.513 713.057, 1753.299 684.830, 1749.192 679.687 C 1748.671 679.034, 1747.908 677.375, 1747.497 676 C 1747.085 674.625, 1745.455 671.565, 1743.874 669.200 C 1742.293 666.835, 1741 664.575, 1741 664.178 C 1741 662.959, 1724.536 647, 1723.279 647 C 1722.630 647, 1721.740 646.430, 1721.300 645.733 C 1720.338 644.210, 1708.414 638.368, 1704.374 637.440 C 1702.793 637.078, 1699.572 636.155, 1697.215 635.390 C 1693.217 634.093, 1675.510 633.603, 1670.500 634.650 M 0.430 715 C 0.430 727.925, 0.573 733.212, 0.747 726.750 C 0.921 720.288, 0.921 709.712, 0.747 703.250 C 0.573 696.788, 0.430 702.075, 0.430 715"/></svg>