<svg xmlns="http://www.w3.org/2000/svg" viewBox="0 0 2000 2000"><style>path{fill:#0a0a0a}@media(prefers-color-scheme:dark){path{fill:#fff}}</style><path fill-rule="evenodd" d="M 586 424.402 L 586 696 589.750 696.006 C 591.813 696.009, 596.200 696.454, 599.500 696.996 C 602.800 697.537, 610.105 698.449, 615.733 699.022 C 630.961 700.573, 673.695 712.128, 680.715 716.592 C 681.933 717.366, 683.509 718, 684.216 718 C 686.309 718, 707.712 728.241, 718.378 734.346 C 723.811 737.456, 728.441 740, 728.667 740 C 729.329 740, 747.180 752.096, 751 755.134 C 769.972 770.220, 789.118 787.998, 800.663 801.250 C 808.788 810.576, 821.856 827.938, 826 834.911 C 827.375 837.224, 829.503 840.554, 830.729 842.309 C 831.954 844.064, 833.515 846.625, 834.196 848 C 834.878 849.375, 838.019 855.284, 841.177 861.131 C 844.334 866.978, 847.786 873.953, 848.848 876.631 C 849.909 879.309, 852.366 885.453, 854.307 890.284 C 861.913 909.215, 867.658 931.189, 872.536 960 C 875.040 974.791, 875.630 1013.135, 873.619 1030.389 C 872.729 1038.029, 872 1045.940, 872 1047.970 C 872 1053.872, 861.490 1094.049, 857.054 1105.107 C 854.824 1110.664, 853 1115.845, 853 1116.620 C 853 1118.308, 834.622 1154.386, 830.139 1161.500 C 828.406 1164.250, 826.203 1167.812, 825.244 1169.416 C 821 1176.513, 805.312 1196.395, 796.322 1206.070 C 768.761 1235.731, 746.941 1253.134, 716.500 1269.731 C 706.198 1275.348, 679.392 1287.685, 675.500 1288.601 C 673.850 1288.989, 670.932 1290.138, 669.015 1291.153 C 667.098 1292.169, 664.741 1293, 663.777 1293 C 662.813 1293, 657.856 1294.306, 652.762 1295.902 C 647.668 1297.498, 641.250 1299.302, 638.500 1299.909 C 630.951 1301.577, 602.535 1305.822, 593.750 1306.594 L 586 1307.276 586 1578.138 L 586 1849 603.750 1848.967 C 613.513 1848.949, 624.650 1848.498, 628.500 1847.964 C 632.350 1847.431, 644.500 1846.103, 655.500 1845.013 C 680.843 1842.501, 686.447 1841.764, 708.500 1838.041 C 725.477 1835.176, 754.055 1829.457, 764 1826.935 C 825.872 1811.249, 860.724 1799.576, 909.500 1778.201 C 998.840 1739.050, 1078.135 1686.677, 1148.500 1620.347 C 1180.999 1589.711, 1206.939 1561.857, 1229.664 1533.193 C 1236.071 1525.112, 1242.947 1516.475, 1244.943 1514 C 1261.848 1493.040, 1294.585 1442.768, 1310.676 1413.057 C 1319.241 1397.242, 1340.390 1355.021, 1343.764 1347 C 1345.500 1342.875, 1349.008 1334.775, 1351.560 1329 C 1354.112 1323.225, 1357.226 1315.543, 1358.479 1311.930 C 1359.733 1308.316, 1361.203 1304.491, 1361.745 1303.430 C 1362.847 1301.276, 1363.826 1298.558, 1368.204 1285.500 C 1369.864 1280.550, 1373.458 1269.975, 1376.191 1262 C 1378.924 1254.025, 1382.180 1243.675, 1383.426 1239 C 1384.673 1234.325, 1386.620 1227.350, 1387.754 1223.500 C 1391.425 1211.036, 1397.349 1185.202, 1403.003 1157 C 1406.205 1141.027, 1412.210 1098.106, 1414.196 1077 C 1415.963 1058.209, 1415.976 947.047, 1414.213 926.500 C 1412.803 910.067, 1409.530 883.046, 1407.947 874.760 C 1407.394 871.867, 1406.274 865.075, 1405.457 859.667 C 1402.189 838.018, 1390.581 787.846, 1382.628 761 C 1374.393 733.199, 1362.493 699.899, 1351.719 674.500 C 1349.852 670.100, 1346.906 663.125, 1345.172 659 C 1340.869 648.765, 1321.849 610.292, 1313.533 595 C 1306.119 581.368, 1291.724 557.151, 1283.516 544.500 C 1280.661 540.100, 1275.397 532, 1271.820 526.500 C 1259.077 506.912, 1234.540 474.861, 1210.618 446.558 C 1196.782 430.188, 1147.571 380.786, 1128 363.620 C 1111.700 349.323, 1093.028 334.028, 1084.844 328.269 C 1081.537 325.942, 1076.057 321.857, 1072.666 319.191 C 1069.275 316.524, 1062.675 311.718, 1058 308.511 C 1053.325 305.304, 1047.250 301, 1044.500 298.948 C 1039.312 295.076, 1018.575 282.090, 997.077 269.250 C 986.658 263.028, 945.638 241, 944.470 241 C 944.269 241, 937.669 237.901, 929.802 234.114 C 900.553 220.031, 868.017 206.803, 843 198.824 C 836.125 196.631, 827.800 193.801, 824.500 192.535 C 821.200 191.269, 815.800 189.690, 812.500 189.025 C 809.200 188.361, 805.375 187.236, 804 186.525 C 802.625 185.815, 799.025 184.717, 796 184.087 C 792.975 183.456, 786.900 181.866, 782.500 180.552 C 778.100 179.238, 765.725 176.308, 755 174.041 C 744.275 171.773, 730.693 168.812, 724.818 167.459 C 718.943 166.107, 712.960 165, 711.522 165 C 710.084 165, 700.266 163.682, 689.704 162.071 C 679.142 160.460, 662.219 158.414, 652.098 157.525 C 641.977 156.635, 632.752 155.374, 631.598 154.722 C 630.221 153.944, 622.030 153.411, 607.750 153.170 L 586 152.804 586 424.402 M 586 990.079 L 586 1072.159 589.250 1071.514 C 594.610 1070.450, 610.074 1062.606, 616.720 1057.579 C 636.776 1042.412, 649.962 1017.011, 649.985 993.500 C 650.006 972.727, 647.054 961.362, 637.482 945.362 C 632.881 937.672, 619.296 924.001, 610.500 918.208 C 603.597 913.663, 591.161 908.102, 587.750 908.034 C 586.097 908.002, 586 912.562, 586 990.079"/></svg>