<svg xmlns="http://www.w3.org/2000/svg" viewBox="0 0 2000 2000"><style>path{fill:#0a0a0a}@media(prefers-color-scheme:dark){path{fill:#fff}}</style><path fill-rule="evenodd" d="M 950.516 109.604 C 947.774 110.350, 935.624 111.889, 923.516 113.025 C 911.407 114.161, 896.471 115.954, 890.325 117.010 C 884.179 118.065, 876.079 119.216, 872.325 119.567 C 868.571 119.918, 863.025 120.808, 860 121.546 C 856.975 122.283, 845.725 124.686, 835 126.885 C 808.211 132.379, 775.839 140.454, 771.410 142.748 C 770.359 143.292, 767.724 144.058, 765.554 144.450 C 760.895 145.293, 718.015 159.488, 706.500 163.999 C 702.100 165.723, 696.250 167.959, 693.500 168.968 C 690.750 169.976, 685.900 171.971, 682.721 173.401 C 679.543 174.830, 676.509 176, 675.978 176 C 673.547 176, 642.692 190.371, 614.293 204.730 C 588.801 217.620, 570.482 227.760, 554.500 237.827 C 547.427 242.282, 543.694 244.607, 533.971 250.614 C 522.719 257.564, 510.386 266.123, 493.789 278.500 C 487.151 283.450, 480.245 288.411, 478.443 289.525 C 476.641 290.639, 470.741 295.199, 465.333 299.659 C 459.925 304.118, 453.250 309.461, 450.500 311.530 C 431.885 325.542, 365.447 389.673, 349.006 409.500 C 344.901 414.450, 338.797 421.650, 335.441 425.500 C 303.691 461.921, 265.170 517.742, 237.795 567 C 227.994 584.636, 208.217 624.087, 202.335 637.737 C 193.856 657.413, 190.925 664.421, 187.378 673.500 C 185.445 678.450, 182.809 685.200, 181.521 688.500 C 179.235 694.359, 167.722 728.552, 162.665 744.500 C 159.185 755.477, 149.782 791.905, 146.663 806.500 C 145.252 813.100, 142.725 824.869, 141.049 832.652 C 139.372 840.436, 138 847.977, 138 849.409 C 138 850.842, 136.907 858.198, 135.572 865.757 C 125.766 921.268, 123.238 1005.479, 129.050 1083 C 130.954 1108.388, 137.733 1153.879, 143.877 1182.500 C 149.884 1210.481, 150.955 1215.100, 152.464 1219.545 C 153.309 1222.034, 154 1225.194, 154 1226.567 C 154 1227.941, 154.690 1230.717, 155.534 1232.737 C 156.378 1234.756, 158.174 1240.704, 159.524 1245.954 C 161.505 1253.658, 176.455 1298.915, 182.002 1314 C 189.327 1333.921, 193.297 1343.552, 204.315 1368.133 C 215.066 1392.118, 239.907 1440.157, 247.546 1451.735 C 249.446 1454.614, 251 1457.199, 251 1457.481 C 251 1458.062, 262.119 1476.203, 270.413 1489.154 C 276.732 1499.020, 295.905 1526.412, 302.815 1535.445 C 333.553 1575.630, 348.385 1592.517, 385.934 1630.079 C 418.715 1662.871, 437.518 1680.121, 459 1697.105 C 513.723 1740.373, 560.188 1770.191, 616.982 1798.485 C 630.467 1805.203, 644.875 1812.170, 649 1813.966 C 653.125 1815.762, 658.750 1818.269, 661.500 1819.536 C 675.301 1825.897, 689.078 1831.536, 703 1836.523 C 706.575 1837.804, 713.325 1840.264, 718 1841.990 C 722.675 1843.716, 731.450 1846.703, 737.500 1848.629 C 743.550 1850.554, 750.975 1852.961, 754 1853.977 C 765.868 1857.963, 801.371 1867.781, 810 1869.463 C 811.925 1869.838, 818.225 1871.284, 824 1872.675 C 848.939 1878.682, 886.712 1884.794, 926.342 1889.234 C 954.980 1892.442, 956.302 1892.500, 1000.500 1892.500 C 1044.698 1892.500, 1046.020 1892.442, 1074.658 1889.234 C 1114.288 1884.794, 1152.061 1878.682, 1177 1872.675 C 1182.775 1871.284, 1189.075 1869.838, 1191 1869.463 C 1199.629 1867.781, 1235.132 1857.963, 1247 1853.977 C 1250.025 1852.961, 1257.450 1850.554, 1263.500 1848.629 C 1269.550 1846.703, 1278.325 1843.716, 1283 1841.990 C 1287.675 1840.264, 1294.425 1837.804, 1298 1836.523 C 1311.922 1831.536, 1325.699 1825.897, 1339.500 1819.536 C 1342.250 1818.269, 1347.875 1815.762, 1352 1813.966 C 1363.851 1808.805, 1407.484 1786.872, 1419.018 1780.277 C 1436.362 1770.360, 1446.053 1764.635, 1455 1759.019 C 1492.120 1735.720, 1532.529 1705.907, 1566 1677.126 C 1584.698 1661.048, 1646.533 1599.199, 1660.106 1583 C 1687.925 1549.798, 1713.885 1515.231, 1730.587 1489.154 C 1738.881 1476.203, 1750 1458.062, 1750 1457.481 C 1750 1457.199, 1751.554 1454.614, 1753.454 1451.735 C 1761.093 1440.157, 1785.934 1392.118, 1796.685 1368.133 C 1807.703 1343.552, 1811.673 1333.921, 1818.998 1314 C 1824.545 1298.915, 1839.495 1253.658, 1841.476 1245.954 C 1842.826 1240.704, 1844.622 1234.756, 1845.466 1232.737 C 1846.310 1230.717, 1847 1227.941, 1847 1226.567 C 1847 1225.194, 1847.691 1222.034, 1848.536 1219.545 C 1850.045 1215.100, 1851.116 1210.481, 1857.123 1182.500 C 1869.422 1125.211, 1875.006 1068.169, 1874.987 1000 C 1874.973 947.104, 1871.714 901.340, 1865.428 865.757 C 1864.093 858.198, 1863 850.842, 1863 849.409 C 1863 847.977, 1861.628 840.436, 1859.951 832.652 C 1858.275 824.869, 1855.748 813.100, 1854.337 806.500 C 1851.218 791.905, 1841.815 755.477, 1838.335 744.500 C 1824.114 699.649, 1816.414 678.925, 1798.665 637.737 C 1792.783 624.087, 1773.006 584.636, 1763.205 567 C 1735.830 517.742, 1697.309 461.921, 1665.559 425.500 C 1662.203 421.650, 1656.099 414.450, 1651.994 409.500 C 1635.553 389.673, 1569.115 325.542, 1550.500 311.530 C 1547.750 309.461, 1541.075 304.118, 1535.667 299.659 C 1530.259 295.199, 1524.359 290.639, 1522.557 289.525 C 1520.755 288.411, 1513.849 283.450, 1507.211 278.500 C 1490.614 266.123, 1478.281 257.564, 1467.029 250.614 C 1457.306 244.607, 1453.573 242.282, 1446.500 237.827 C 1430.518 227.760, 1412.199 217.620, 1386.707 204.730 C 1358.308 190.371, 1327.453 176, 1325.022 176 C 1324.491 176, 1321.457 174.830, 1318.279 173.401 C 1315.100 171.971, 1310.250 169.976, 1307.500 168.968 C 1304.750 167.959, 1298.900 165.723, 1294.500 163.999 C 1282.985 159.488, 1240.105 145.293, 1235.446 144.450 C 1233.276 144.058, 1230.641 143.292, 1229.590 142.748 C 1225.161 140.454, 1192.789 132.379, 1166 126.885 C 1155.275 124.686, 1144.025 122.283, 1141 121.546 C 1137.975 120.808, 1132.429 119.918, 1128.675 119.567 C 1124.921 119.216, 1116.821 118.065, 1110.675 117.010 C 1104.529 115.954, 1089.522 114.154, 1077.326 113.010 C 1065.130 111.866, 1052.620 110.271, 1049.527 109.465 C 1041.684 107.422, 958.105 107.540, 950.516 109.604 M 989 680.070 C 984.875 680.504, 977 681.335, 971.500 681.915 C 959.477 683.183, 929.881 690.375, 914 695.888 C 896.911 701.820, 880.812 708.851, 867.952 715.999 C 861.654 719.500, 854.021 723.745, 850.990 725.432 C 830.119 737.054, 798.511 763.640, 775.764 788.707 C 768.818 796.361, 754.997 814.534, 748.543 824.500 C 746.405 827.800, 743.905 831.625, 742.987 833 C 742.069 834.375, 738.707 840.450, 735.517 846.500 C 732.326 852.550, 729.322 858.005, 728.842 858.622 C 727.126 860.824, 718.736 881.760, 713.379 897.209 C 707.206 915.009, 705.364 922.446, 700.308 950 C 696.743 969.431, 696.730 969.605, 696.660 999 C 696.604 1022.616, 696.930 1030.395, 698.291 1038 C 699.227 1043.225, 699.993 1049.300, 699.995 1051.500 C 700.003 1060.157, 709.827 1095.647, 719.293 1121.207 C 721.603 1127.445, 734.221 1153.017, 740.676 1164.543 C 745.272 1172.751, 751.024 1181.442, 758.987 1192.214 C 779.491 1219.950, 816.944 1255.428, 841.700 1270.565 C 845.990 1273.188, 851.525 1276.647, 854 1278.251 C 861.618 1283.189, 888.895 1296.366, 902.543 1301.700 C 928.315 1311.774, 952.285 1317.518, 982.993 1320.977 C 1000.441 1322.943, 1000.530 1322.943, 1018.249 1320.945 C 1048.764 1317.503, 1072.833 1311.730, 1098.457 1301.705 C 1112.115 1296.362, 1139.393 1283.182, 1147 1278.251 C 1149.475 1276.647, 1155.010 1273.188, 1159.300 1270.565 C 1184.056 1255.428, 1221.509 1219.950, 1242.013 1192.214 C 1249.976 1181.442, 1255.728 1172.751, 1260.324 1164.543 C 1266.779 1153.017, 1279.397 1127.445, 1281.707 1121.207 C 1291.173 1095.647, 1300.997 1060.157, 1301.005 1051.500 C 1301.007 1049.300, 1301.773 1043.225, 1302.709 1038 C 1304.070 1030.395, 1304.396 1022.616, 1304.340 999 C 1304.270 969.605, 1304.257 969.431, 1300.692 950 C 1295.636 922.446, 1293.794 915.009, 1287.621 897.209 C 1282.264 881.760, 1273.874 860.824, 1272.158 858.622 C 1271.678 858.005, 1268.674 852.550, 1265.483 846.500 C 1262.293 840.450, 1258.931 834.375, 1258.013 833 C 1257.095 831.625, 1254.595 827.800, 1252.457 824.500 C 1246.003 814.534, 1232.182 796.361, 1225.236 788.707 C 1202.489 763.640, 1170.881 737.054, 1150.010 725.432 C 1146.979 723.745, 1139.346 719.500, 1133.048 715.999 C 1120.188 708.851, 1104.089 701.820, 1087 695.888 C 1071.047 690.350, 1041.477 683.174, 1029.500 681.934 C 997.612 678.632, 1001.118 678.793, 989 680.070 M 995 903.434 C 983.233 906.717, 969.597 915.666, 957.312 928.167 C 950.609 934.988, 948.031 938.589, 943.102 948.014 C 935.093 963.329, 933.693 969.432, 933.586 989.500 C 933.509 1003.767, 933.759 1006.313, 935.895 1013 C 940.452 1027.272, 947.526 1039.280, 957.783 1050.153 C 966.041 1058.907, 974.004 1064.654, 985.572 1070.208 C 993.030 1073.789, 995.488 1074.495, 1000.500 1074.495 C 1011.530 1074.495, 1030.395 1063.745, 1043.217 1050.153 C 1053.474 1039.280, 1060.548 1027.272, 1065.105 1013 C 1067.241 1006.313, 1067.491 1003.767, 1067.414 989.500 C 1067.307 969.432, 1065.907 963.329, 1057.898 948.014 C 1052.969 938.589, 1050.391 934.988, 1043.688 928.167 C 1034.435 918.751, 1026.493 912.740, 1017 907.969 C 1011.507 905.208, 1001.729 901.833, 1000 902.101 C 999.725 902.144, 997.475 902.744, 995 903.434"/></svg>